<svg xmlns="http://www.w3.org/2000/svg" xmlns:xlink="http://www.w3.org/1999/xlink" width="500" zoomAndPan="magnify" viewBox="0 0 375 374.999991" height="500" preserveAspectRatio="xMidYMid meet" version="1.0"><defs><g/><clipPath id="e029258f06"><path d="M 56 156 L 193 156 L 193 303 L 56 303 Z M 56 156 " clip-rule="nonzero"/></clipPath><clipPath id="162433a1aa"><path d="M 69.363281 314.425781 L 43.507812 290.808594 L 166.488281 156.183594 L 192.34375 179.800781 Z M 69.363281 314.425781 " clip-rule="nonzero"/></clipPath><clipPath id="d2763a4395"><path d="M 56.4375 302.617188 L 166.402344 156.273438 L 192.257812 179.890625 Z M 56.4375 302.617188 " clip-rule="nonzero"/></clipPath><clipPath id="4d186f6caa"><path d="M 56 156 L 193 156 L 193 303 L 56 303 Z M 56 156 " clip-rule="nonzero"/></clipPath><clipPath id="16ee7b28f8"><path d="M 69.363281 314.425781 L 43.339844 290.652344 L 166.253906 156.09375 L 192.28125 179.867188 Z M 69.363281 314.425781 " clip-rule="nonzero"/></clipPath><clipPath id="7bc2c737c0"><path d="M 69.367188 314.421875 L 43.414062 290.714844 L 166.703125 155.746094 L 192.65625 179.457031 Z M 69.367188 314.421875 " clip-rule="nonzero"/></clipPath><clipPath id="2824bbbf76"><path d="M 56.441406 302.613281 L 166.402344 156.28125 L 192.253906 179.898438 Z M 56.441406 302.613281 " clip-rule="nonzero"/></clipPath><clipPath id="0aa9b45294"><path d="M 150 87 L 263 87 L 263 201 L 150 201 Z M 150 87 " clip-rule="nonzero"/></clipPath><clipPath id="5da818eb13"><path d="M 244.175781 213.78125 L 136.394531 181.542969 L 168.632812 73.761719 L 276.414062 106 Z M 244.175781 213.78125 " clip-rule="nonzero"/></clipPath><clipPath id="9296d79483"><path d="M 190.285156 197.664062 C 220.050781 206.566406 251.394531 189.652344 260.296875 159.890625 C 269.199219 130.128906 252.285156 98.78125 222.523438 89.878906 C 192.757812 80.980469 161.414062 97.890625 152.511719 127.652344 C 143.613281 157.417969 160.523438 188.761719 190.285156 197.664062 Z M 190.285156 197.664062 " clip-rule="nonzero"/></clipPath><clipPath id="cf920020c6"><path d="M 150 87 L 263 87 L 263 201 L 150 201 Z M 150 87 " clip-rule="nonzero"/></clipPath><clipPath id="5bac15fb2d"><path d="M 244.175781 213.78125 L 136.394531 181.542969 L 168.632812 73.761719 L 276.414062 106 Z M 244.175781 213.78125 " clip-rule="nonzero"/></clipPath><clipPath id="fc91f7698b"><path d="M 244.175781 213.78125 L 136.394531 181.542969 L 168.632812 73.761719 L 276.414062 106 Z M 244.175781 213.78125 " clip-rule="nonzero"/></clipPath><clipPath id="13ac4537b8"><path d="M 190.285156 197.664062 C 220.050781 206.566406 251.394531 189.652344 260.296875 159.890625 C 269.199219 130.128906 252.285156 98.78125 222.523438 89.878906 C 192.757812 80.980469 161.414062 97.890625 152.511719 127.652344 C 143.613281 157.417969 160.523438 188.761719 190.285156 197.664062 Z M 190.285156 197.664062 " clip-rule="nonzero"/></clipPath><clipPath id="9203973b8e"><path d="M 157 93 L 254 93 L 254 171 L 157 171 Z M 157 93 " clip-rule="nonzero"/></clipPath><clipPath id="c70fcf8f21"><path d="M 183.09375 76.933594 L 258.21875 114.511719 L 230.035156 170.855469 L 154.910156 133.277344 Z M 183.09375 76.933594 " clip-rule="nonzero"/></clipPath><clipPath id="51e5ab4517"><path d="M 183.09375 76.933594 L 258.21875 114.511719 L 230.035156 170.855469 L 154.910156 133.277344 Z M 183.09375 76.933594 " clip-rule="nonzero"/></clipPath><clipPath id="96fceb57f8"><path d="M 183.09375 76.933594 L 270.292969 120.550781 L 143.464844 374.101562 L 56.265625 330.480469 Z M 183.09375 76.933594 " clip-rule="nonzero"/></clipPath><clipPath id="2e606504f4"><path d="M 172 100 L 223 100 L 223 143 L 172 143 Z M 172 100 " clip-rule="nonzero"/></clipPath><clipPath id="3810ea903c"><path d="M 183.09375 76.933594 L 258.21875 114.511719 L 230.035156 170.855469 L 154.910156 133.277344 Z M 183.09375 76.933594 " clip-rule="nonzero"/></clipPath><clipPath id="5a5a2c187d"><path d="M 183.09375 76.933594 L 258.21875 114.511719 L 230.035156 170.855469 L 154.910156 133.277344 Z M 183.09375 76.933594 " clip-rule="nonzero"/></clipPath><clipPath id="0002674502"><path d="M 183.09375 76.933594 L 270.292969 120.550781 L 143.464844 374.101562 L 56.265625 330.480469 Z M 183.09375 76.933594 " clip-rule="nonzero"/></clipPath><clipPath id="9d807a292e"><path d="M 53 243 L 254 243 L 254 303 L 53 303 Z M 53 243 " clip-rule="nonzero"/></clipPath><clipPath id="e4f2de2a42"><path d="M 54.421875 305.011719 L 53.03125 300.101562 L 252.425781 243.683594 L 253.8125 248.59375 Z M 54.421875 305.011719 " clip-rule="nonzero"/></clipPath><clipPath id="0d5b92cbf9"><path d="M 53.726562 302.554688 L 252.40625 243.691406 L 253.796875 248.597656 Z M 53.726562 302.554688 " clip-rule="nonzero"/></clipPath><clipPath id="e212d960c9"><path d="M 218 227 L 332 227 L 332 260 L 218 260 Z M 218 227 " clip-rule="nonzero"/></clipPath><clipPath id="5f0f274fa7"><path d="M 219.011719 260.59375 L 218.320312 229.265625 L 330.902344 226.78125 L 331.59375 258.109375 Z M 219.011719 260.59375 " clip-rule="nonzero"/></clipPath><clipPath id="824404eede"><path d="M 218.664062 244.929688 C 218.855469 253.582031 244.1875 260.039062 275.246094 259.351562 C 306.304688 258.667969 331.328125 251.097656 331.136719 242.449219 C 330.945312 233.796875 305.613281 227.339844 274.554688 228.023438 C 243.496094 228.710938 218.472656 236.28125 218.664062 244.929688 Z M 218.664062 244.929688 " clip-rule="nonzero"/></clipPath></defs><rect x="-37.5" width="450" fill="#ffffff" y="-37.499999" height="449.999989" fill-opacity="1"/><rect x="-37.5" width="450" fill="#ffffff" y="-37.499999" height="449.999989" fill-opacity="1"/><g clip-path="url(#e029258f06)"><g clip-path="url(#162433a1aa)"><g clip-path="url(#d2763a4395)"><path fill="#cfcfcf" d="M 69.363281 314.425781 L 43.507812 290.808594 L 166.394531 156.28125 L 192.25 179.902344 Z M 69.363281 314.425781 " fill-opacity="1" fill-rule="nonzero"/></g></g></g><g clip-path="url(#4d186f6caa)"><g clip-path="url(#16ee7b28f8)"><g clip-path="url(#7bc2c737c0)"><g clip-path="url(#2824bbbf76)"><path stroke-linecap="butt" transform="matrix(-0.553744, -0.505833, 0.505833, -0.553744, 69.368342, 314.422187)" fill="none" stroke-linejoin="miter" d="M 23.344986 0.000418701 L 46.68616 242.938064 L -0.00097735 242.935763 Z M 23.344986 0.000418701 " stroke="#000000" stroke-width="2" stroke-opacity="1" stroke-miterlimit="4"/></g></g></g></g><g clip-path="url(#0aa9b45294)"><g clip-path="url(#5da818eb13)"><g clip-path="url(#9296d79483)"><path fill="#df3535" d="M 244.175781 213.78125 L 136.394531 181.542969 L 168.632812 73.761719 L 276.414062 106 Z M 244.175781 213.78125 " fill-opacity="1" fill-rule="nonzero"/></g></g></g><g clip-path="url(#cf920020c6)"><g clip-path="url(#5bac15fb2d)"><g clip-path="url(#fc91f7698b)"><g clip-path="url(#13ac4537b8)"><path stroke-linecap="butt" transform="matrix(-0.718549, -0.214911, 0.214911, -0.718549, 244.177474, 213.78151)" fill="none" stroke-linejoin="miter" d="M 75.001091 -0.00158362 C 33.576583 -0.00123142 -0.000318992 33.580488 -0.00145923 75.000007 C -0.00259946 116.419525 33.580613 150.001417 75.000131 150.002557 C 116.423147 149.997215 150.001541 116.420485 150.002681 75.000966 C 149.997339 33.577951 116.420609 -0.00044339 75.001091 -0.00158362 Z M 75.001091 -0.00158362 " stroke="#000000" stroke-width="2" stroke-opacity="1" stroke-miterlimit="4"/></g></g></g></g><g clip-path="url(#9203973b8e)"><g clip-path="url(#c70fcf8f21)"><g clip-path="url(#51e5ab4517)"><g clip-path="url(#96fceb57f8)"><path fill="#df3535" d="M 249.058594 162.761719 C 248.367188 164.144531 247.605469 165.492188 246.777344 166.800781 C 245.949219 168.105469 245.054688 169.371094 244.097656 170.589844 C 243.140625 171.804688 242.125 172.972656 241.050781 174.089844 C 239.972656 175.210938 238.84375 176.269531 237.65625 177.277344 C 236.472656 178.28125 235.238281 179.226562 233.957031 180.113281 C 232.675781 180.996094 231.351562 181.816406 229.984375 182.570312 C 228.617188 183.328125 227.210938 184.011719 225.773438 184.628906 C 224.335938 185.25 222.867188 185.792969 221.371094 186.269531 C 219.871094 186.742188 218.355469 187.144531 216.8125 187.472656 C 215.273438 187.800781 213.71875 188.050781 212.148438 188.226562 C 210.578125 188.402344 209.003906 188.503906 207.421875 188.527344 C 205.835938 188.550781 204.253906 188.5 202.671875 188.371094 C 201.09375 188.242188 199.519531 188.035156 197.953125 187.757812 C 196.390625 187.476562 194.84375 187.121094 193.308594 186.691406 C 191.777344 186.261719 190.269531 185.761719 188.78125 185.1875 C 187.296875 184.613281 185.839844 183.972656 184.417969 183.257812 C 182.992188 182.546875 181.605469 181.765625 180.253906 180.921875 C 178.902344 180.078125 177.597656 179.171875 176.335938 178.203125 C 175.074219 177.230469 173.859375 176.207031 172.699219 175.121094 C 171.535156 174.039062 170.429688 172.902344 169.375 171.714844 C 168.324219 170.527344 167.335938 169.292969 166.402344 168.011719 C 165.472656 166.730469 164.609375 165.410156 163.808594 164.046875 C 163.007812 162.683594 162.277344 161.289062 161.613281 159.859375 C 160.953125 158.433594 160.363281 156.976562 159.84375 155.492188 C 159.328125 154.011719 158.882812 152.507812 158.515625 150.988281 C 158.144531 149.464844 157.855469 147.929688 157.636719 146.382812 C 157.421875 144.835938 157.28125 143.285156 157.222656 141.730469 C 157.160156 140.171875 157.175781 138.617188 157.273438 137.066406 C 157.367188 135.515625 157.539062 133.972656 157.785156 132.441406 C 158.035156 130.910156 158.359375 129.398438 158.761719 127.902344 C 159.164062 126.40625 159.636719 124.933594 160.1875 123.484375 C 160.738281 122.039062 161.355469 120.625 162.050781 119.238281 C 162.742188 117.855469 163.503906 116.507812 164.332031 115.203125 C 165.160156 113.894531 166.050781 112.632812 167.007812 111.414062 C 167.964844 110.195312 168.984375 109.027344 170.058594 107.910156 C 171.136719 106.792969 172.265625 105.730469 173.449219 104.722656 C 174.636719 103.71875 175.867188 102.773438 177.152344 101.886719 C 178.433594 101.003906 179.757812 100.183594 181.125 99.429688 C 182.492188 98.675781 183.894531 97.988281 185.335938 97.371094 C 186.773438 96.753906 188.242188 96.207031 189.738281 95.730469 C 191.234375 95.257812 192.753906 94.855469 194.292969 94.527344 C 195.835938 94.203125 197.390625 93.949219 198.960938 93.773438 C 200.527344 93.597656 202.105469 93.496094 203.6875 93.472656 C 205.269531 93.449219 206.851562 93.503906 208.433594 93.632812 C 210.015625 93.761719 211.589844 93.964844 213.152344 94.246094 C 214.71875 94.523438 216.265625 94.878906 217.796875 95.308594 C 219.332031 95.738281 220.839844 96.238281 222.324219 96.8125 C 223.8125 97.386719 225.265625 98.03125 226.691406 98.742188 C 228.117188 99.457031 229.503906 100.234375 230.855469 101.078125 C 232.203125 101.921875 233.511719 102.832031 234.773438 103.800781 C 236.035156 104.769531 237.246094 105.796875 238.410156 106.878906 C 239.574219 107.960938 240.679688 109.097656 241.730469 110.285156 C 242.78125 111.476562 243.773438 112.710938 244.703125 113.992188 C 245.632812 115.269531 246.5 116.59375 247.300781 117.953125 C 248.097656 119.316406 248.832031 120.710938 249.492188 122.140625 C 250.15625 123.570312 250.746094 125.023438 251.261719 126.507812 C 251.78125 127.988281 252.222656 129.492188 252.59375 131.015625 C 252.960938 132.535156 253.253906 134.070312 253.46875 135.617188 C 253.6875 137.164062 253.824219 138.714844 253.886719 140.273438 C 253.945312 141.828125 253.929688 143.382812 253.835938 144.933594 C 253.742188 146.484375 253.570312 148.027344 253.320312 149.558594 C 253.074219 151.089844 252.746094 152.601562 252.347656 154.101562 C 251.945312 155.597656 251.46875 157.066406 250.921875 158.515625 C 250.371094 159.960938 249.75 161.378906 249.058594 162.761719 Z M 249.058594 162.761719 " fill-opacity="1" fill-rule="nonzero"/></g></g></g></g><g clip-path="url(#2e606504f4)"><g clip-path="url(#3810ea903c)"><g clip-path="url(#5a5a2c187d)"><g clip-path="url(#0002674502)"><path fill="#e8e7e7" d="M 189.179688 111.511719 C 175.242188 119.6875 170.460938 133.558594 175.492188 142.117188 C 169.453125 131.84375 171.746094 113.554688 185.683594 105.375 C 199.625 97.195312 216.722656 101.039062 222.761719 111.3125 C 215.097656 104.820312 203.121094 103.332031 189.179688 111.511719 Z M 189.179688 111.511719 " fill-opacity="1" fill-rule="nonzero"/></g></g></g></g><g fill="#000000" fill-opacity="1"><g transform="translate(151.114905, 120.885329)"><g><path d="M -8.984375 -17.890625 L -6.609375 -16.734375 L -9.65625 -10.5 L -5.859375 -8.65625 L -3.09375 -14.328125 L -0.765625 -13.1875 L -3.53125 -7.515625 L 2.28125 -4.6875 L 0.90625 -1.859375 L -13.40625 -8.828125 Z M -8.984375 -17.890625 "/></g></g></g><g fill="#000000" fill-opacity="1"><g transform="translate(155.84504, 110.681583)"><g><path d="M 4.4375 -5.40625 C 3.71875 -4.46875 2.894531 -3.789062 1.96875 -3.375 C 1.039062 -2.957031 0.0625 -2.835938 -0.96875 -3.015625 C -2.007812 -3.203125 -3.054688 -3.703125 -4.109375 -4.515625 C -5.148438 -5.316406 -5.894531 -6.195312 -6.34375 -7.15625 C -6.789062 -8.113281 -6.929688 -9.09375 -6.765625 -10.09375 C -6.609375 -11.09375 -6.171875 -12.0625 -5.453125 -13 C -4.734375 -13.925781 -3.914062 -14.59375 -3 -15 C -2.082031 -15.414062 -1.097656 -15.535156 -0.046875 -15.359375 C 0.992188 -15.179688 2.035156 -14.691406 3.078125 -13.890625 C 4.128906 -13.078125 4.875 -12.1875 5.3125 -11.21875 C 5.75 -10.257812 5.890625 -9.28125 5.734375 -8.28125 C 5.585938 -7.289062 5.15625 -6.332031 4.4375 -5.40625 Z M 2.40625 -6.96875 C 3.539062 -8.445312 3.132812 -9.929688 1.1875 -11.421875 C 0.1875 -12.191406 -0.691406 -12.566406 -1.453125 -12.546875 C -2.210938 -12.523438 -2.867188 -12.15625 -3.421875 -11.4375 C -4.554688 -9.957031 -4.15625 -8.472656 -2.21875 -6.984375 C -0.269531 -5.492188 1.269531 -5.488281 2.40625 -6.96875 Z M 2.40625 -6.96875 "/></g></g></g><g fill="#000000" fill-opacity="1"><g transform="translate(163.515261, 100.800934)"><g><path d="M 1.28125 -1.171875 L -6.828125 -10.03125 L -4.671875 -12 L -3.46875 -10.671875 L -3.265625 -10.796875 C -3.492188 -11.492188 -3.539062 -12.113281 -3.40625 -12.65625 C -3.28125 -13.207031 -2.96875 -13.710938 -2.46875 -14.171875 C -1.957031 -14.628906 -1.488281 -14.890625 -1.0625 -14.953125 L 0.296875 -12.703125 L 0.15625 -12.515625 C -0.0390625 -12.453125 -0.21875 -12.367188 -0.375 -12.265625 C -0.53125 -12.171875 -0.703125 -12.035156 -0.890625 -11.859375 C -1.515625 -11.296875 -1.789062 -10.644531 -1.71875 -9.90625 C -1.65625 -9.164062 -1.179688 -8.316406 -0.296875 -7.359375 L 3.5 -3.203125 Z M 1.28125 -1.171875 "/></g></g></g><g fill="#000000" fill-opacity="1"><g transform="translate(168.607296, 94.996557)"><g><path d="M 1.515625 -0.859375 L -4.40625 -11.3125 L -1.890625 -12.734375 L -1.09375 -11.328125 L -0.875 -11.40625 C -0.851562 -12.15625 -0.6875 -12.789062 -0.375 -13.3125 C -0.0703125 -13.832031 0.429688 -14.296875 1.140625 -14.703125 C 1.929688 -15.148438 2.65625 -15.351562 3.3125 -15.3125 C 3.96875 -15.269531 4.582031 -15.019531 5.15625 -14.5625 L 5.34375 -14.65625 C 5.320312 -15.46875 5.476562 -16.164062 5.8125 -16.75 C 6.144531 -17.332031 6.691406 -17.84375 7.453125 -18.28125 C 9.617188 -19.507812 11.382812 -18.921875 12.75 -16.515625 L 16.734375 -9.484375 L 14.109375 -7.984375 L 10.3125 -14.6875 C 9.96875 -15.289062 9.597656 -15.660156 9.203125 -15.796875 C 8.816406 -15.941406 8.359375 -15.863281 7.828125 -15.5625 C 6.378906 -14.75 6.195312 -13.378906 7.28125 -11.453125 L 10.421875 -5.90625 L 7.796875 -4.421875 L 4 -11.125 C 3.65625 -11.726562 3.285156 -12.097656 2.890625 -12.234375 C 2.503906 -12.367188 2.046875 -12.289062 1.515625 -12 C 0.835938 -11.613281 0.4375 -11.085938 0.3125 -10.421875 C 0.195312 -9.753906 0.414062 -8.929688 0.96875 -7.953125 L 4.140625 -2.34375 Z M 1.515625 -0.859375 "/></g></g></g><g fill="#000000" fill-opacity="1"><g transform="translate(185.018459, 85.995045)"><g><path d="M 4.59375 -1 C 3.84375 -0.800781 3.15625 -0.765625 2.53125 -0.890625 C 1.914062 -1.023438 1.390625 -1.3125 0.953125 -1.75 C 0.515625 -2.195312 0.195312 -2.789062 0 -3.53125 C -0.1875 -4.21875 -0.195312 -4.835938 -0.03125 -5.390625 C 0.132812 -5.941406 0.484375 -6.445312 1.015625 -6.90625 C 1.554688 -7.375 2.300781 -7.820312 3.25 -8.25 C 3.914062 -8.550781 4.40625 -8.816406 4.71875 -9.046875 C 5.039062 -9.273438 5.238281 -9.488281 5.3125 -9.6875 C 5.394531 -9.894531 5.40625 -10.128906 5.34375 -10.390625 C 5.238281 -10.753906 5.03125 -11 4.71875 -11.125 C 4.414062 -11.257812 3.960938 -11.242188 3.359375 -11.078125 C 2.722656 -10.898438 2.148438 -10.585938 1.640625 -10.140625 C 1.140625 -9.703125 0.738281 -9.191406 0.4375 -8.609375 L 0.234375 -8.546875 L -1.5 -10.046875 C -1.09375 -10.859375 -0.515625 -11.5625 0.234375 -12.15625 C 0.984375 -12.75 1.863281 -13.179688 2.875 -13.453125 C 4.40625 -13.867188 5.601562 -13.84375 6.46875 -13.375 C 7.332031 -12.914062 7.925781 -12.082031 8.25 -10.875 L 9.609375 -5.859375 C 9.753906 -5.335938 10.050781 -5.140625 10.5 -5.265625 C 10.6875 -5.316406 10.847656 -5.394531 10.984375 -5.5 L 11.15625 -5.5 L 11.90625 -3.515625 C 11.78125 -3.378906 11.582031 -3.234375 11.3125 -3.078125 C 11.050781 -2.929688 10.75 -2.8125 10.40625 -2.71875 C 9.707031 -2.53125 9.125 -2.515625 8.65625 -2.671875 C 8.195312 -2.835938 7.8125 -3.179688 7.5 -3.703125 L 7.265625 -3.65625 C 7.023438 -2.3125 6.132812 -1.425781 4.59375 -1 Z M 4.90625 -3.421875 C 5.582031 -3.609375 6.0625 -3.976562 6.34375 -4.53125 C 6.625 -5.09375 6.65625 -5.785156 6.4375 -6.609375 L 6.109375 -7.78125 L 5.921875 -7.765625 C 5.765625 -7.578125 5.554688 -7.394531 5.296875 -7.21875 C 5.046875 -7.050781 4.664062 -6.847656 4.15625 -6.609375 C 3.550781 -6.335938 3.144531 -6.03125 2.9375 -5.6875 C 2.738281 -5.351562 2.703125 -4.957031 2.828125 -4.5 C 2.960938 -4 3.210938 -3.660156 3.578125 -3.484375 C 3.941406 -3.304688 4.382812 -3.285156 4.90625 -3.421875 Z M 4.90625 -3.421875 "/></g></g></g><g fill="#000000" fill-opacity="1"><g transform="translate(196.19681, 83.143525)"><g/></g></g><g fill="#000000" fill-opacity="1"><g transform="translate(200.274101, 82.27206)"><g><path d="M 12.234375 -15.859375 L 12.234375 -13.21875 L 5.296875 -13.25 L 5.265625 -9.03125 L 11.5625 -9 L 11.546875 -6.40625 L 5.25 -6.4375 L 5.21875 0.03125 L 2.0625 0.015625 L 2.140625 -15.90625 Z M 12.234375 -15.859375 "/></g></g></g><g fill="#000000" fill-opacity="1"><g transform="translate(211.566684, 82.169218)"><g><path d="M 12.6875 -2.875 L 5.125 -4.390625 C 5.007812 -3.347656 5.148438 -2.539062 5.546875 -1.96875 C 5.953125 -1.40625 6.585938 -1.039062 7.453125 -0.875 C 8.128906 -0.738281 8.695312 -0.753906 9.15625 -0.921875 C 9.625 -1.085938 10.039062 -1.398438 10.40625 -1.859375 L 10.625 -1.8125 L 12.34375 -0.171875 C 11.78125 0.578125 11.0625 1.132812 10.1875 1.5 C 9.3125 1.863281 8.226562 1.910156 6.9375 1.640625 C 5.71875 1.398438 4.710938 0.957031 3.921875 0.3125 C 3.128906 -0.332031 2.585938 -1.160156 2.296875 -2.171875 C 2.003906 -3.179688 1.988281 -4.34375 2.25 -5.65625 C 2.519531 -7 3 -8.078125 3.6875 -8.890625 C 4.382812 -9.710938 5.207031 -10.257812 6.15625 -10.53125 C 7.101562 -10.800781 8.113281 -10.828125 9.1875 -10.609375 C 10.851562 -10.273438 12.039062 -9.578125 12.75 -8.515625 C 13.457031 -7.460938 13.640625 -6.082031 13.296875 -4.375 C 13.171875 -3.757812 13.050781 -3.285156 12.9375 -2.953125 Z M 10.53125 -5.28125 C 10.6875 -6.1875 10.609375 -6.878906 10.296875 -7.359375 C 9.992188 -7.847656 9.46875 -8.164062 8.71875 -8.3125 C 7.21875 -8.625 6.171875 -7.945312 5.578125 -6.28125 Z M 10.53125 -5.28125 "/></g></g></g><g fill="#000000" fill-opacity="1"><g transform="translate(222.990005, 84.515704)"><g><path d="M 1.625 0.625 L 5.953125 -10.59375 L 8.671875 -9.546875 L 8.015625 -7.859375 L 8.21875 -7.71875 C 8.726562 -8.25 9.257812 -8.578125 9.8125 -8.703125 C 10.363281 -8.828125 10.957031 -8.769531 11.59375 -8.53125 C 12.226562 -8.28125 12.671875 -7.984375 12.921875 -7.640625 L 11.5 -5.40625 L 11.265625 -5.4375 C 11.128906 -5.570312 10.976562 -5.691406 10.8125 -5.796875 C 10.65625 -5.898438 10.457031 -6 10.21875 -6.09375 C 9.425781 -6.394531 8.71875 -6.347656 8.09375 -5.953125 C 7.46875 -5.566406 6.921875 -4.765625 6.453125 -3.546875 L 4.4375 1.703125 Z M 1.625 0.625 "/></g></g></g><g fill="#000000" fill-opacity="1"><g transform="translate(230.662225, 87.301025)"><g><path d="M 4.765625 3 C 4.054688 2.59375 3.453125 2.132812 2.953125 1.625 C 2.453125 1.125 2.070312 0.601562 1.8125 0.0625 C 1.5625 -0.46875 1.445312 -0.984375 1.46875 -1.484375 L 3.828125 -2.203125 L 4.03125 -2.09375 C 4.101562 -1.425781 4.304688 -0.835938 4.640625 -0.328125 C 4.984375 0.171875 5.429688 0.582031 5.984375 0.90625 C 6.492188 1.195312 6.929688 1.320312 7.296875 1.28125 C 7.671875 1.25 7.953125 1.066406 8.140625 0.734375 C 8.296875 0.460938 8.328125 0.1875 8.234375 -0.09375 C 8.140625 -0.382812 7.921875 -0.703125 7.578125 -1.046875 L 6.390625 -2.171875 C 5.492188 -3.003906 4.953125 -3.8125 4.765625 -4.59375 C 4.585938 -5.375 4.722656 -6.15625 5.171875 -6.9375 C 5.546875 -7.582031 6.035156 -8.046875 6.640625 -8.328125 C 7.242188 -8.617188 7.914062 -8.71875 8.65625 -8.625 C 9.40625 -8.539062 10.179688 -8.265625 10.984375 -7.796875 C 11.921875 -7.253906 12.617188 -6.671875 13.078125 -6.046875 C 13.535156 -5.429688 13.8125 -4.796875 13.90625 -4.140625 L 11.65625 -3.4375 L 11.46875 -3.546875 C 11.363281 -4.035156 11.171875 -4.457031 10.890625 -4.8125 C 10.609375 -5.175781 10.242188 -5.484375 9.796875 -5.734375 C 8.765625 -6.328125 8.066406 -6.304688 7.703125 -5.671875 C 7.546875 -5.398438 7.515625 -5.125 7.609375 -4.84375 C 7.710938 -4.570312 7.972656 -4.238281 8.390625 -3.84375 L 9.515625 -2.828125 C 10.441406 -1.992188 11.003906 -1.1875 11.203125 -0.40625 C 11.398438 0.375 11.257812 1.1875 10.78125 2.03125 C 10.394531 2.695312 9.894531 3.1875 9.28125 3.5 C 8.664062 3.8125 7.972656 3.925781 7.203125 3.84375 C 6.429688 3.769531 5.617188 3.488281 4.765625 3 Z M 4.765625 3 "/></g></g></g><g fill="#000000" fill-opacity="1"><g transform="translate(239.089867, 91.819796)"><g><path d="M 5.140625 4.71875 C 4.253906 3.945312 3.628906 3.085938 3.265625 2.140625 C 2.910156 1.203125 2.847656 0.222656 3.078125 -0.796875 C 3.304688 -1.828125 3.851562 -2.847656 4.71875 -3.859375 C 5.582031 -4.859375 6.503906 -5.554688 7.484375 -5.953125 C 8.472656 -6.347656 9.460938 -6.4375 10.453125 -6.21875 C 11.441406 -6 12.378906 -5.503906 13.265625 -4.734375 C 14.160156 -3.960938 14.785156 -3.109375 15.140625 -2.171875 C 15.503906 -1.242188 15.566406 -0.265625 15.328125 0.765625 C 15.097656 1.804688 14.550781 2.828125 13.6875 3.828125 C 12.820312 4.835938 11.898438 5.535156 10.921875 5.921875 C 9.941406 6.304688 8.957031 6.394531 7.96875 6.1875 C 6.976562 5.976562 6.035156 5.488281 5.140625 4.71875 Z M 6.8125 2.78125 C 8.226562 3.988281 9.734375 3.660156 11.328125 1.796875 C 12.148438 0.835938 12.570312 -0.015625 12.59375 -0.765625 C 12.613281 -1.523438 12.28125 -2.203125 11.59375 -2.796875 C 10.175781 -4.015625 8.671875 -3.695312 7.078125 -1.84375 C 5.484375 0.0195312 5.394531 1.5625 6.8125 2.78125 Z M 6.8125 2.78125 "/></g></g></g><g fill="#000000" fill-opacity="1"><g transform="translate(248.518554, 99.660385)"><g><path d="M 1.046875 1.375 L 10.59375 -5.921875 L 12.359375 -3.625 L 10.953125 -2.546875 L 11.046875 -2.328125 C 12.578125 -2.554688 13.851562 -2.003906 14.875 -0.671875 C 15.71875 0.429688 16.035156 1.46875 15.828125 2.4375 C 15.617188 3.414062 14.941406 4.34375 13.796875 5.21875 L 7.59375 9.953125 L 5.765625 7.546875 L 11.671875 3.03125 C 12.316406 2.539062 12.679688 2.066406 12.765625 1.609375 C 12.847656 1.148438 12.675781 0.640625 12.25 0.078125 C 11.71875 -0.609375 11.082031 -0.972656 10.34375 -1.015625 C 9.613281 -1.054688 8.769531 -0.71875 7.8125 0 L 2.875 3.78125 Z M 1.046875 1.375 "/></g></g></g><g fill="#000000" fill-opacity="1"><g transform="translate(256.139157, 109.487893)"><g><path d="M 1.84375 4.328125 C 1.507812 3.628906 1.34375 2.960938 1.34375 2.328125 C 1.351562 1.691406 1.535156 1.117188 1.890625 0.609375 C 2.253906 0.0976562 2.785156 -0.328125 3.484375 -0.671875 C 4.117188 -0.972656 4.71875 -1.09375 5.28125 -1.03125 C 5.851562 -0.976562 6.414062 -0.726562 6.96875 -0.28125 C 7.53125 0.15625 8.109375 0.800781 8.703125 1.65625 C 9.117188 2.257812 9.472656 2.695312 9.765625 2.96875 C 10.054688 3.238281 10.304688 3.390625 10.515625 3.421875 C 10.722656 3.460938 10.953125 3.425781 11.203125 3.3125 C 11.546875 3.144531 11.75 2.898438 11.8125 2.578125 C 11.882812 2.253906 11.785156 1.8125 11.515625 1.25 C 11.222656 0.644531 10.8125 0.140625 10.28125 -0.265625 C 9.75 -0.679688 9.164062 -0.984375 8.53125 -1.171875 L 8.4375 -1.375 L 9.59375 -3.34375 C 10.476562 -3.082031 11.273438 -2.640625 11.984375 -2.015625 C 12.703125 -1.390625 13.289062 -0.609375 13.75 0.328125 C 14.4375 1.742188 14.632812 2.921875 14.34375 3.859375 C 14.050781 4.796875 13.34375 5.539062 12.21875 6.09375 L 7.546875 8.359375 C 7.054688 8.597656 6.914062 8.925781 7.125 9.34375 C 7.207031 9.507812 7.3125 9.65625 7.4375 9.78125 L 7.484375 9.9375 L 5.671875 11.046875 C 5.503906 10.953125 5.320312 10.785156 5.125 10.546875 C 4.9375 10.316406 4.765625 10.039062 4.609375 9.71875 C 4.296875 9.070312 4.171875 8.503906 4.234375 8.015625 C 4.304688 7.523438 4.578125 7.078125 5.046875 6.671875 L 4.953125 6.453125 C 3.578125 6.472656 2.539062 5.765625 1.84375 4.328125 Z M 4.296875 4.1875 C 4.597656 4.8125 5.046875 5.207031 5.640625 5.375 C 6.242188 5.550781 6.925781 5.457031 7.6875 5.09375 L 8.78125 4.5625 L 8.71875 4.359375 C 8.507812 4.253906 8.296875 4.09375 8.078125 3.875 C 7.867188 3.65625 7.601562 3.316406 7.28125 2.859375 C 6.882812 2.316406 6.503906 1.972656 6.140625 1.828125 C 5.773438 1.691406 5.378906 1.726562 4.953125 1.9375 C 4.484375 2.164062 4.195312 2.472656 4.09375 2.859375 C 3.988281 3.253906 4.054688 3.695312 4.296875 4.1875 Z M 4.296875 4.1875 "/></g></g></g><g clip-path="url(#9d807a292e)"><g clip-path="url(#e4f2de2a42)"><g clip-path="url(#0d5b92cbf9)"><path fill="#e8e7e7" d="M 54.421875 305.011719 L 53.03125 300.101562 L 252.40625 243.691406 L 253.792969 248.601562 Z M 54.421875 305.011719 " fill-opacity="1" fill-rule="nonzero"/></g></g></g><g clip-path="url(#e212d960c9)"><g clip-path="url(#5f0f274fa7)"><g clip-path="url(#824404eede)"><path fill="#e8e7e7" d="M 219.011719 260.59375 L 218.320312 229.265625 L 330.78125 226.785156 L 331.472656 258.113281 Z M 219.011719 260.59375 " fill-opacity="1" fill-rule="nonzero"/></g></g></g></svg>